<svg width="660" height="271" viewBox="0 0 660 271" fill="none" xmlns="http://www.w3.org/2000/svg">
<g clip-path="url(#clip0_190_833)">
<path d="M65 223.575H655" stroke="black"/>
<path d="M65 6.7749V223.575" stroke="black"/>
<path d="M59 223.575H65" stroke="black"/>
<path d="M50.25 219.434C49.608 219.434 49.0611 219.26 48.6094 218.91C48.1577 218.558 47.8125 218.048 47.5739 217.38C47.3352 216.71 47.2159 215.9 47.2159 214.951C47.2159 214.008 47.3352 213.203 47.5739 212.535C47.8153 211.865 48.1619 211.353 48.6136 211.001C49.0682 210.646 49.6136 210.468 50.25 210.468C50.8864 210.468 51.4304 210.646 51.8821 211.001C52.3366 211.353 52.6832 211.865 52.9219 212.535C53.1634 213.203 53.2841 214.008 53.2841 214.951C53.2841 215.9 53.1648 216.71 52.9261 217.38C52.6875 218.048 52.3423 218.558 51.8906 218.91C51.4389 219.26 50.892 219.434 50.25 219.434ZM50.25 218.497C50.8864 218.497 51.3807 218.19 51.733 217.576C52.0852 216.963 52.2614 216.088 52.2614 214.951C52.2614 214.196 52.1804 213.552 52.0185 213.021C51.8594 212.49 51.6293 212.085 51.3281 211.806C51.0298 211.528 50.6705 211.389 50.25 211.389C49.6193 211.389 49.1264 211.7 48.7713 212.322C48.4162 212.941 48.2386 213.818 48.2386 214.951C48.2386 215.707 48.3182 216.349 48.4773 216.877C48.6364 217.406 48.8651 217.808 49.1634 218.083C49.4645 218.359 49.8267 218.497 50.25 218.497Z" fill="black"/>
<path d="M59 169.375H65" stroke="black"/>
<path d="M44.8935 156.388V165.115H43.8366V157.496H43.7855L41.6548 158.91V157.837L43.8366 156.388H44.8935ZM50.25 165.234C49.608 165.234 49.0611 165.06 48.6094 164.71C48.1577 164.358 47.8125 163.848 47.5739 163.18C47.3352 162.51 47.2159 161.7 47.2159 160.751C47.2159 159.808 47.3352 159.003 47.5739 158.335C47.8153 157.665 48.1619 157.153 48.6136 156.801C49.0682 156.446 49.6136 156.268 50.25 156.268C50.8864 156.268 51.4304 156.446 51.8821 156.801C52.3366 157.153 52.6832 157.665 52.9219 158.335C53.1634 159.003 53.2841 159.808 53.2841 160.751C53.2841 161.7 53.1648 162.51 52.9261 163.18C52.6875 163.848 52.3423 164.358 51.8906 164.71C51.4389 165.06 50.892 165.234 50.25 165.234ZM50.25 164.297C50.8864 164.297 51.3807 163.99 51.733 163.376C52.0852 162.763 52.2614 161.888 52.2614 160.751C52.2614 159.996 52.1804 159.352 52.0185 158.821C51.8594 158.29 51.6293 157.885 51.3281 157.606C51.0298 157.328 50.6705 157.189 50.25 157.189C49.6193 157.189 49.1264 157.5 48.7713 158.122C48.4162 158.741 48.2386 159.618 48.2386 160.751C48.2386 161.507 48.3182 162.149 48.4773 162.677C48.6364 163.206 48.8651 163.608 49.1634 163.883C49.4645 164.159 49.8267 164.297 50.25 164.297Z" fill="black"/>
<path d="M59 115.175H65" stroke="black"/>
<path d="M40.1378 110.915V110.148L43.0185 106.995C43.3565 106.625 43.6349 106.304 43.8537 106.032C44.0724 105.756 44.2344 105.497 44.3395 105.256C44.4474 105.012 44.5014 104.756 44.5014 104.489C44.5014 104.182 44.4276 103.916 44.2798 103.692C44.1349 103.468 43.9361 103.294 43.6832 103.172C43.4304 103.05 43.1463 102.989 42.831 102.989C42.4957 102.989 42.2031 103.059 41.9531 103.198C41.706 103.334 41.5142 103.526 41.3778 103.773C41.2443 104.02 41.1776 104.31 41.1776 104.642H40.1719C40.1719 104.131 40.2898 103.682 40.5256 103.296C40.7614 102.909 41.0824 102.608 41.4886 102.392C41.8977 102.176 42.3565 102.068 42.8651 102.068C43.3764 102.068 43.8295 102.176 44.2244 102.392C44.6193 102.608 44.929 102.899 45.1534 103.266C45.3778 103.632 45.4901 104.04 45.4901 104.489C45.4901 104.81 45.4318 105.124 45.3153 105.431C45.2017 105.735 45.0028 106.074 44.7188 106.449C44.4375 106.821 44.0469 107.276 43.5469 107.813L41.5866 109.909V109.978H45.6435V110.915H40.1378ZM50.25 111.034C49.608 111.034 49.0611 110.86 48.6094 110.51C48.1577 110.158 47.8125 109.648 47.5739 108.98C47.3352 108.31 47.2159 107.5 47.2159 106.551C47.2159 105.608 47.3352 104.803 47.5739 104.135C47.8153 103.465 48.1619 102.953 48.6136 102.601C49.0682 102.246 49.6136 102.068 50.25 102.068C50.8864 102.068 51.4304 102.246 51.8821 102.601C52.3366 102.953 52.6832 103.465 52.9219 104.135C53.1634 104.803 53.2841 105.608 53.2841 106.551C53.2841 107.5 53.1648 108.31 52.9261 108.98C52.6875 109.648 52.3423 110.158 51.8906 110.51C51.4389 110.86 50.892 111.034 50.25 111.034ZM50.25 110.097C50.8864 110.097 51.3807 109.79 51.733 109.176C52.0852 108.563 52.2614 107.688 52.2614 106.551C52.2614 105.796 52.1804 105.152 52.0185 104.621C51.8594 104.09 51.6293 103.685 51.3281 103.407C51.0298 103.128 50.6705 102.989 50.25 102.989C49.6193 102.989 49.1264 103.3 48.7713 103.922C48.4162 104.541 48.2386 105.418 48.2386 106.551C48.2386 107.307 48.3182 107.949 48.4773 108.478C48.6364 109.006 48.8651 109.408 49.1634 109.684C49.4645 109.959 49.8267 110.097 50.25 110.097Z" fill="black"/>
<path d="M59 60.9751H65" stroke="black"/>
<path d="M42.7116 56.8344C42.1491 56.8344 41.6477 56.7378 41.2074 56.5446C40.7699 56.3515 40.4219 56.083 40.1634 55.7392C39.9077 55.3926 39.7685 54.9907 39.7457 54.5333H40.8196C40.8423 54.8145 40.9389 55.0574 41.1094 55.262C41.2798 55.4637 41.5028 55.6199 41.7784 55.7307C42.054 55.8415 42.3594 55.8969 42.6946 55.8969C43.0696 55.8969 43.402 55.8316 43.6918 55.7009C43.9815 55.5702 44.2088 55.3884 44.3736 55.1554C44.5384 54.9225 44.6207 54.6526 44.6207 54.3458C44.6207 54.0247 44.5412 53.7421 44.3821 53.4978C44.223 53.2506 43.9901 53.0574 43.6832 52.9182C43.3764 52.779 43.0014 52.7094 42.5582 52.7094H41.8594V51.7719H42.5582C42.9048 51.7719 43.2088 51.7094 43.4702 51.5844C43.7344 51.4594 43.9403 51.2833 44.0881 51.056C44.2386 50.8287 44.3139 50.5617 44.3139 50.2549C44.3139 49.9594 44.2486 49.7023 44.1179 49.4836C43.9872 49.2648 43.8026 49.0943 43.5639 48.9722C43.3281 48.85 43.0497 48.789 42.7287 48.789C42.4276 48.789 42.1435 48.8443 41.8764 48.9551C41.6122 49.0631 41.3963 49.2208 41.2287 49.4282C41.0611 49.6327 40.9702 49.8799 40.956 50.1696H39.9332C39.9503 49.7122 40.0881 49.3117 40.3466 48.9679C40.6051 48.6213 40.9432 48.3515 41.3608 48.1583C41.7813 47.9651 42.2429 47.8685 42.7457 47.8685C43.2855 47.8685 43.7486 47.9779 44.1349 48.1966C44.5213 48.4125 44.8182 48.698 45.0256 49.0532C45.233 49.4083 45.3366 49.7918 45.3366 50.2037C45.3366 50.6952 45.2074 51.1142 44.9489 51.4608C44.6932 51.8074 44.3452 52.0475 43.9048 52.181V52.2492C44.456 52.3401 44.8864 52.5745 45.196 52.9523C45.5057 53.3273 45.6605 53.7918 45.6605 54.3458C45.6605 54.8202 45.5313 55.2463 45.2727 55.6242C45.017 55.9992 44.6676 56.2946 44.2244 56.5105C43.7813 56.7265 43.277 56.8344 42.7116 56.8344ZM50.25 56.8344C49.608 56.8344 49.0611 56.6597 48.6094 56.3103C48.1577 55.958 47.8125 55.448 47.5739 54.7804C47.3352 54.11 47.2159 53.3003 47.2159 52.3515C47.2159 51.4083 47.3352 50.6029 47.5739 49.9353C47.8153 49.2648 48.1619 48.7534 48.6136 48.4012C49.0682 48.0461 49.6136 47.8685 50.25 47.8685C50.8864 47.8685 51.4304 48.0461 51.8821 48.4012C52.3366 48.7534 52.6832 49.2648 52.9219 49.9353C53.1634 50.6029 53.2841 51.4083 53.2841 52.3515C53.2841 53.3003 53.1648 54.11 52.9261 54.7804C52.6875 55.448 52.3423 55.958 51.8906 56.3103C51.4389 56.6597 50.892 56.8344 50.25 56.8344ZM50.25 55.8969C50.8864 55.8969 51.3807 55.5901 51.733 54.9765C52.0852 54.3628 52.2614 53.4878 52.2614 52.3515C52.2614 51.5958 52.1804 50.9523 52.0185 50.4211C51.8594 49.8898 51.6293 49.485 51.3281 49.2066C51.0298 48.9282 50.6705 48.789 50.25 48.789C49.6193 48.789 49.1264 49.1 48.7713 49.7222C48.4162 50.3415 48.2386 51.2179 48.2386 52.3515C48.2386 53.1071 48.3182 53.7492 48.4773 54.2776C48.6364 54.806 48.8651 55.208 49.1634 55.4836C49.4645 55.7591 49.8267 55.8969 50.25 55.8969Z" fill="black"/>
<path d="M59 6.7749H65" stroke="black"/>
<path d="M39.4996 9.53274V8.66342L43.3349 2.59524H43.9656V3.94183H43.5394L40.6417 8.52706V8.59524H45.8065V9.53274H39.4996ZM43.6076 11.3225V9.26853V8.8637V2.59524H44.6133V11.3225H43.6076ZM50.25 11.4418C49.608 11.4418 49.0611 11.2671 48.6094 10.9177C48.1577 10.5654 47.8125 10.0555 47.5739 9.38785C47.3352 8.7174 47.2159 7.90774 47.2159 6.95887C47.2159 6.01569 47.3352 5.21029 47.5739 4.54268C47.8153 3.87223 48.1619 3.36086 48.6136 3.00859C49.0682 2.65348 49.6136 2.47592 50.25 2.47592C50.8864 2.47592 51.4304 2.65348 51.8821 3.00859C52.3366 3.36086 52.6832 3.87223 52.9219 4.54268C53.1634 5.21029 53.2841 6.01569 53.2841 6.95887C53.2841 7.90774 53.1648 8.7174 52.9261 9.38785C52.6875 10.0555 52.3423 10.5654 51.8906 10.9177C51.4389 11.2671 50.892 11.4418 50.25 11.4418ZM50.25 10.5043C50.8864 10.5043 51.3807 10.1975 51.733 9.58387C52.0852 8.97024 52.2614 8.09524 52.2614 6.95887C52.2614 6.20319 52.1804 5.55973 52.0185 5.02848C51.8594 4.49723 51.6293 4.0924 51.3281 3.81399C51.0298 3.53558 50.6705 3.39637 50.25 3.39637C49.6193 3.39637 49.1264 3.70745 48.7713 4.32961C48.4162 4.94893 48.2386 5.82535 48.2386 6.95887C48.2386 7.71456 48.3182 8.3566 48.4773 8.88501C48.6364 9.41342 48.8651 9.81541 49.1634 10.091C49.4645 10.3665 49.8267 10.5043 50.25 10.5043Z" fill="black"/>
<path d="M65 223.575H655" stroke="#CCCCCC"/>
<path d="M65 169.375H655" stroke="#CCCCCC"/>
<path d="M65 115.175H655" stroke="#CCCCCC"/>
<path d="M65 60.9749H655" stroke="#CCCCCC"/>
<path d="M65 6.7749H655" stroke="#CCCCCC"/>
<path d="M65 6.7749V223.575" stroke="#CCCCCC"/>
<path d="M130.556 6.7749V223.575" stroke="#CCCCCC"/>
<path d="M196.111 6.7749V223.575" stroke="#CCCCCC"/>
<path d="M261.667 6.7749V223.575" stroke="#CCCCCC"/>
<path d="M327.222 6.7749V223.575" stroke="#CCCCCC"/>
<path d="M392.778 6.7749V223.575" stroke="#CCCCCC"/>
<path d="M458.333 6.7749V223.575" stroke="#CCCCCC"/>
<path d="M523.889 6.7749V223.575" stroke="#CCCCCC"/>
<path d="M589.444 6.7749V223.575" stroke="#CCCCCC"/>
<path d="M655 6.7749V223.575" stroke="#CCCCCC"/>
<path d="M65 147.695L130.556 109.755L196.111 33.8748L261.667 50.1348L327.222 196.475L392.778 158.535L458.333 104.335L523.889 28.4548L589.444 196.475L655 120.595V223.575H589.444H523.889H458.333H392.778H327.222H261.667H196.111H130.556H65V147.695Z" fill="#3E4AF9" fill-opacity="0.6"/>
<path d="M65 151.76C66.6569 151.76 68 149.94 68 147.695C68 145.45 66.6569 143.63 65 143.63C63.3431 143.63 62 145.45 62 147.695C62 149.94 63.3431 151.76 65 151.76Z" fill="#3E4AF9" fill-opacity="0.6"/>
<path d="M130.556 113.82C132.212 113.82 133.556 112 133.556 109.755C133.556 107.51 132.212 105.69 130.556 105.69C128.899 105.69 127.556 107.51 127.556 109.755C127.556 112 128.899 113.82 130.556 113.82Z" fill="#3E4AF9" fill-opacity="0.6"/>
<path d="M196.111 37.9398C197.768 37.9398 199.111 36.1199 199.111 33.8748C199.111 31.6298 197.768 29.8098 196.111 29.8098C194.454 29.8098 193.111 31.6298 193.111 33.8748C193.111 36.1199 194.454 37.9398 196.111 37.9398Z" fill="#3E4AF9" fill-opacity="0.6"/>
<path d="M261.667 54.1998C263.323 54.1998 264.667 52.3799 264.667 50.1348C264.667 47.8898 263.323 46.0698 261.667 46.0698C260.01 46.0698 258.667 47.8898 258.667 50.1348C258.667 52.3799 260.01 54.1998 261.667 54.1998Z" fill="#3E4AF9" fill-opacity="0.6"/>
<path d="M327.222 200.54C328.879 200.54 330.222 198.72 330.222 196.475C330.222 194.23 328.879 192.41 327.222 192.41C325.565 192.41 324.222 194.23 324.222 196.475C324.222 198.72 325.565 200.54 327.222 200.54Z" fill="#3E4AF9" fill-opacity="0.6"/>
<path d="M392.778 162.6C394.435 162.6 395.778 160.78 395.778 158.535C395.778 156.29 394.435 154.47 392.778 154.47C391.121 154.47 389.778 156.29 389.778 158.535C389.778 160.78 391.121 162.6 392.778 162.6Z" fill="#3E4AF9" fill-opacity="0.6"/>
<path d="M458.333 108.4C459.99 108.4 461.333 106.58 461.333 104.335C461.333 102.09 459.99 100.27 458.333 100.27C456.677 100.27 455.333 102.09 455.333 104.335C455.333 106.58 456.677 108.4 458.333 108.4Z" fill="#3E4AF9" fill-opacity="0.6"/>
<path d="M523.889 32.5199C525.546 32.5199 526.889 30.6999 526.889 28.4549C526.889 26.2099 525.546 24.3899 523.889 24.3899C522.232 24.3899 520.889 26.2099 520.889 28.4549C520.889 30.6999 522.232 32.5199 523.889 32.5199Z" fill="#3E4AF9" fill-opacity="0.6"/>
<path d="M589.444 200.54C591.101 200.54 592.444 198.72 592.444 196.475C592.444 194.23 591.101 192.41 589.444 192.41C587.788 192.41 586.444 194.23 586.444 196.475C586.444 198.72 587.788 200.54 589.444 200.54Z" fill="#3E4AF9" fill-opacity="0.6"/>
<path d="M655 124.66C656.657 124.66 658 122.84 658 120.595C658 118.35 656.657 116.53 655 116.53C653.343 116.53 652 118.35 652 120.595C652 122.84 653.343 124.66 655 124.66Z" fill="#3E4AF9" fill-opacity="0.6"/>
<path d="M65 191.055L130.556 50.1348L196.111 196.475L261.667 66.3948L327.222 196.475L392.778 23.0348L458.333 12.1948L523.889 93.4948L589.444 98.9148L655 66.3948V223.575H589.444H523.889H458.333H392.778H327.222H261.667H196.111H130.556H65V191.055Z" fill="#AC95CC" fill-opacity="0.6"/>
<path d="M65 195.12C66.6569 195.12 68 193.3 68 191.055C68 188.81 66.6569 186.99 65 186.99C63.3431 186.99 62 188.81 62 191.055C62 193.3 63.3431 195.12 65 195.12Z" fill="#AC95CC" fill-opacity="0.6"/>
<path d="M130.556 54.1998C132.212 54.1998 133.556 52.3799 133.556 50.1348C133.556 47.8898 132.212 46.0698 130.556 46.0698C128.899 46.0698 127.556 47.8898 127.556 50.1348C127.556 52.3799 128.899 54.1998 130.556 54.1998Z" fill="#AC95CC" fill-opacity="0.6"/>
<path d="M196.111 200.54C197.768 200.54 199.111 198.72 199.111 196.475C199.111 194.23 197.768 192.41 196.111 192.41C194.454 192.41 193.111 194.23 193.111 196.475C193.111 198.72 194.454 200.54 196.111 200.54Z" fill="#AC95CC" fill-opacity="0.6"/>
<path d="M261.667 70.4598C263.323 70.4598 264.667 68.6399 264.667 66.3948C264.667 64.1498 263.323 62.3298 261.667 62.3298C260.01 62.3298 258.667 64.1498 258.667 66.3948C258.667 68.6399 260.01 70.4598 261.667 70.4598Z" fill="#AC95CC" fill-opacity="0.6"/>
<path d="M327.222 200.54C328.879 200.54 330.222 198.72 330.222 196.475C330.222 194.23 328.879 192.41 327.222 192.41C325.565 192.41 324.222 194.23 324.222 196.475C324.222 198.72 325.565 200.54 327.222 200.54Z" fill="#AC95CC" fill-opacity="0.6"/>
<path d="M392.778 27.1C394.435 27.1 395.778 25.28 395.778 23.035C395.778 20.7899 394.435 18.97 392.778 18.97C391.121 18.97 389.778 20.7899 389.778 23.035C389.778 25.28 391.121 27.1 392.778 27.1Z" fill="#AC95CC" fill-opacity="0.6"/>
<path d="M458.333 16.2599C459.99 16.2599 461.333 14.4399 461.333 12.1949C461.333 9.94985 459.99 8.12988 458.333 8.12988C456.677 8.12988 455.333 9.94985 455.333 12.1949C455.333 14.4399 456.677 16.2599 458.333 16.2599Z" fill="#AC95CC" fill-opacity="0.6"/>
<path d="M523.889 97.5599C525.546 97.5599 526.889 95.74 526.889 93.4949C526.889 91.2499 525.546 89.4299 523.889 89.4299C522.232 89.4299 520.889 91.2499 520.889 93.4949C520.889 95.74 522.232 97.5599 523.889 97.5599Z" fill="#AC95CC" fill-opacity="0.6"/>
<path d="M589.444 102.98C591.101 102.98 592.444 101.16 592.444 98.9149C592.444 96.6698 591.101 94.8499 589.444 94.8499C587.788 94.8499 586.444 96.6698 586.444 98.9149C586.444 101.16 587.788 102.98 589.444 102.98Z" fill="#AC95CC" fill-opacity="0.6"/>
<path d="M655 70.4598C656.657 70.4598 658 68.6399 658 66.3948C658 64.1498 656.657 62.3298 655 62.3298C653.343 62.3298 652 64.1498 652 66.3948C652 68.6399 653.343 70.4598 655 70.4598Z" fill="#AC95CC" fill-opacity="0.6"/>
<path d="M67 231.705V223.575" stroke="black"/>
<path d="M50.7944 235.915V234.978H57.3398V235.915H54.5955V243.705H53.5387V235.915H50.7944ZM60.5444 243.841C59.9535 243.841 59.435 243.701 58.989 243.42C58.5458 243.138 58.1992 242.745 57.9492 242.239C57.7021 241.733 57.5785 241.143 57.5785 240.466C57.5785 239.785 57.7021 239.189 57.9492 238.681C58.1992 238.172 58.5458 237.778 58.989 237.496C59.435 237.215 59.9535 237.074 60.5444 237.074C61.1353 237.074 61.6523 237.215 62.0955 237.496C62.5415 237.778 62.8881 238.172 63.1353 238.681C63.3853 239.189 63.5103 239.785 63.5103 240.466C63.5103 241.143 63.3853 241.733 63.1353 242.239C62.8881 242.745 62.5415 243.138 62.0955 243.42C61.6523 243.701 61.1353 243.841 60.5444 243.841ZM60.5444 242.938C60.9933 242.938 61.3626 242.823 61.6523 242.593C61.9421 242.363 62.1566 242.06 62.2958 241.685C62.435 241.31 62.5046 240.904 62.5046 240.466C62.5046 240.029 62.435 239.621 62.2958 239.243C62.1566 238.866 61.9421 238.56 61.6523 238.327C61.3626 238.094 60.9933 237.978 60.5444 237.978C60.0955 237.978 59.7262 238.094 59.4364 238.327C59.1467 238.56 58.9322 238.866 58.793 239.243C58.6538 239.621 58.5842 240.029 58.5842 240.466C58.5842 240.904 58.6538 241.31 58.793 241.685C58.9322 242.06 59.1467 242.363 59.4364 242.593C59.7262 242.823 60.0955 242.938 60.5444 242.938ZM67.517 243.841C66.9716 243.841 66.4901 243.704 66.0724 243.428C65.6548 243.15 65.3281 242.758 65.0923 242.252C64.8565 241.743 64.7386 241.143 64.7386 240.449C64.7386 239.762 64.8565 239.165 65.0923 238.66C65.3281 238.154 65.6563 237.763 66.0767 237.488C66.4972 237.212 66.983 237.074 67.5341 237.074C67.9602 237.074 68.2969 237.145 68.544 237.287C68.794 237.427 68.9844 237.586 69.1151 237.765C69.2486 237.941 69.3523 238.086 69.4261 238.199H69.5114V234.978H70.517V243.705H69.5455V242.699H69.4261C69.3523 242.819 69.2472 242.969 69.1108 243.151C68.9744 243.33 68.7798 243.491 68.527 243.633C68.2741 243.772 67.9375 243.841 67.517 243.841ZM67.6534 242.938C68.0568 242.938 68.3977 242.833 68.6761 242.623C68.9545 242.41 69.1662 242.116 69.3111 241.741C69.456 241.363 69.5284 240.927 69.5284 240.432C69.5284 239.944 69.4574 239.516 69.3153 239.15C69.1733 238.78 68.9631 238.493 68.6847 238.289C68.4063 238.081 68.0625 237.978 67.6534 237.978C67.2273 237.978 66.8722 238.087 66.5881 238.306C66.3068 238.522 66.0952 238.816 65.9531 239.188C65.8139 239.557 65.7443 239.972 65.7443 240.432C65.7443 240.898 65.8153 241.322 65.9574 241.702C66.1023 242.08 66.3153 242.381 66.5966 242.606C66.8807 242.827 67.233 242.938 67.6534 242.938ZM74.4247 243.858C74.0099 243.858 73.6335 243.78 73.2955 243.624C72.9574 243.465 72.6889 243.236 72.4901 242.938C72.2912 242.637 72.1918 242.273 72.1918 241.847C72.1918 241.472 72.2656 241.168 72.4134 240.935C72.5611 240.699 72.7585 240.515 73.0057 240.381C73.2528 240.248 73.5256 240.148 73.8239 240.083C74.125 240.015 74.4276 239.961 74.7315 239.921C75.1293 239.87 75.4517 239.831 75.6989 239.806C75.9489 239.778 76.1307 239.731 76.2443 239.665C76.3608 239.6 76.419 239.486 76.419 239.324V239.29C76.419 238.87 76.304 238.543 76.0739 238.31C75.8466 238.077 75.5014 237.961 75.0384 237.961C74.5582 237.961 74.1818 238.066 73.9091 238.276C73.6364 238.486 73.4446 238.711 73.3338 238.949L72.3793 238.608C72.5497 238.211 72.777 237.901 73.0611 237.68C73.348 237.455 73.6605 237.299 73.9986 237.211C74.3395 237.12 74.6747 237.074 75.0043 237.074C75.2145 237.074 75.456 237.1 75.7287 237.151C76.0043 237.199 76.2699 237.3 76.5256 237.454C76.7841 237.607 76.9986 237.839 77.169 238.148C77.3395 238.458 77.4247 238.873 77.4247 239.393V243.705H76.419V242.819H76.3679C76.2997 242.961 76.1861 243.113 76.027 243.275C75.8679 243.437 75.6563 243.574 75.392 243.688C75.1278 243.802 74.8054 243.858 74.4247 243.858ZM74.5781 242.955C74.9759 242.955 75.3111 242.877 75.5838 242.721C75.8594 242.564 76.0668 242.363 76.206 242.116C76.348 241.868 76.419 241.608 76.419 241.336V240.415C76.3764 240.466 76.2827 240.513 76.1378 240.556C75.9957 240.596 75.831 240.631 75.6435 240.662C75.4588 240.691 75.2784 240.716 75.1023 240.739C74.929 240.759 74.7884 240.776 74.6804 240.79C74.419 240.824 74.1747 240.88 73.9474 240.956C73.723 241.03 73.5412 241.143 73.402 241.293C73.2656 241.441 73.1974 241.643 73.1974 241.898C73.1974 242.248 73.3267 242.512 73.5852 242.691C73.8466 242.867 74.1776 242.955 74.5781 242.955ZM79.6737 246.16C79.5032 246.16 79.3512 246.145 79.2177 246.117C79.0842 246.091 78.9918 246.066 78.9407 246.04L79.1964 245.154C79.4407 245.216 79.6566 245.239 79.8441 245.222C80.0316 245.205 80.1978 245.121 80.3427 244.971C80.4904 244.823 80.6254 244.583 80.7475 244.251L80.935 243.739L78.5146 237.16H79.6055L81.4123 242.376H81.4805L83.2873 237.16H84.3782L81.5998 244.66C81.4748 244.998 81.32 245.278 81.1353 245.499C80.9506 245.724 80.7362 245.89 80.4918 245.998C80.2504 246.106 79.9776 246.16 79.6737 246.16Z" fill="black"/>
<path d="M132.556 231.705V223.575" stroke="black"/>
<path d="M105.108 234.978H106.319L108.739 239.052H108.841L111.262 234.978H112.472L109.319 240.108V243.705H108.262V240.108L105.108 234.978ZM115.521 243.841C114.89 243.841 114.346 243.702 113.889 243.424C113.434 243.143 113.084 242.751 112.836 242.248C112.592 241.742 112.47 241.154 112.47 240.483C112.47 239.813 112.592 239.222 112.836 238.711C113.084 238.197 113.427 237.796 113.868 237.509C114.311 237.219 114.828 237.074 115.419 237.074C115.76 237.074 116.096 237.131 116.429 237.245C116.761 237.358 117.064 237.543 117.336 237.799C117.609 238.052 117.826 238.387 117.988 238.805C118.15 239.222 118.231 239.736 118.231 240.347V240.773H113.186V239.904H117.209C117.209 239.535 117.135 239.205 116.987 238.915C116.842 238.626 116.635 238.397 116.365 238.229C116.098 238.062 115.782 237.978 115.419 237.978C115.018 237.978 114.672 238.077 114.379 238.276C114.089 238.472 113.866 238.728 113.71 239.043C113.554 239.358 113.476 239.697 113.476 240.057V240.637C113.476 241.131 113.561 241.55 113.731 241.894C113.905 242.235 114.145 242.495 114.451 242.674C114.758 242.85 115.115 242.938 115.521 242.938C115.785 242.938 116.024 242.901 116.237 242.827C116.453 242.751 116.639 242.637 116.795 242.486C116.951 242.333 117.072 242.143 117.157 241.915L118.129 242.188C118.027 242.518 117.855 242.807 117.613 243.057C117.372 243.305 117.074 243.498 116.719 243.637C116.363 243.773 115.964 243.841 115.521 243.841ZM124.398 238.626L123.494 238.881C123.437 238.731 123.353 238.584 123.243 238.442C123.135 238.297 122.987 238.178 122.8 238.084C122.612 237.991 122.372 237.944 122.079 237.944C121.679 237.944 121.345 238.036 121.078 238.221C120.814 238.403 120.682 238.634 120.682 238.915C120.682 239.165 120.773 239.363 120.954 239.508C121.136 239.653 121.42 239.773 121.807 239.87L122.778 240.108C123.363 240.251 123.8 240.468 124.086 240.76C124.373 241.05 124.517 241.424 124.517 241.881C124.517 242.256 124.409 242.591 124.193 242.887C123.98 243.182 123.682 243.415 123.298 243.586C122.915 243.756 122.469 243.841 121.96 243.841C121.292 243.841 120.74 243.697 120.302 243.407C119.865 243.117 119.588 242.694 119.471 242.137L120.426 241.898C120.517 242.251 120.689 242.515 120.942 242.691C121.197 242.867 121.531 242.955 121.943 242.955C122.412 242.955 122.784 242.856 123.059 242.657C123.338 242.455 123.477 242.214 123.477 241.932C123.477 241.705 123.398 241.515 123.238 241.361C123.079 241.205 122.835 241.089 122.505 241.012L121.415 240.756C120.815 240.614 120.375 240.394 120.094 240.096C119.815 239.795 119.676 239.418 119.676 238.966C119.676 238.597 119.78 238.27 119.987 237.986C120.197 237.702 120.483 237.479 120.844 237.317C121.207 237.155 121.619 237.074 122.079 237.074C122.727 237.074 123.236 237.216 123.605 237.501C123.977 237.785 124.241 238.16 124.398 238.626ZM128.877 237.16V238.012H125.485V237.16H128.877ZM126.474 235.591H127.48V241.83C127.48 242.114 127.521 242.327 127.603 242.469C127.688 242.608 127.796 242.702 127.927 242.751C128.061 242.796 128.201 242.819 128.349 242.819C128.46 242.819 128.551 242.813 128.622 242.802C128.693 242.787 128.749 242.776 128.792 242.768L128.997 243.671C128.928 243.697 128.833 243.722 128.711 243.748C128.589 243.776 128.434 243.79 128.247 243.79C127.963 243.79 127.684 243.729 127.411 243.607C127.141 243.485 126.917 243.299 126.738 243.049C126.562 242.799 126.474 242.483 126.474 242.103V235.591ZM133.064 243.841C132.433 243.841 131.889 243.702 131.432 243.424C130.977 243.143 130.627 242.751 130.379 242.248C130.135 241.742 130.013 241.154 130.013 240.483C130.013 239.813 130.135 239.222 130.379 238.711C130.627 238.197 130.97 237.796 131.411 237.509C131.854 237.219 132.371 237.074 132.962 237.074C133.303 237.074 133.639 237.131 133.972 237.245C134.304 237.358 134.607 237.543 134.879 237.799C135.152 238.052 135.369 238.387 135.531 238.805C135.693 239.222 135.774 239.736 135.774 240.347V240.773H130.729V239.904H134.752C134.752 239.535 134.678 239.205 134.53 238.915C134.385 238.626 134.178 238.397 133.908 238.229C133.641 238.062 133.325 237.978 132.962 237.978C132.561 237.978 132.215 238.077 131.922 238.276C131.632 238.472 131.409 238.728 131.253 239.043C131.097 239.358 131.019 239.697 131.019 240.057V240.637C131.019 241.131 131.104 241.55 131.274 241.894C131.448 242.235 131.688 242.495 131.994 242.674C132.301 242.85 132.658 242.938 133.064 242.938C133.328 242.938 133.567 242.901 133.78 242.827C133.996 242.751 134.182 242.637 134.338 242.486C134.494 242.333 134.615 242.143 134.7 241.915L135.672 242.188C135.57 242.518 135.398 242.807 135.156 243.057C134.915 243.305 134.617 243.498 134.262 243.637C133.906 243.773 133.507 243.841 133.064 243.841ZM137.304 243.705V237.16H138.276V238.148H138.344C138.463 237.824 138.679 237.562 138.992 237.36C139.304 237.158 139.656 237.057 140.048 237.057C140.122 237.057 140.215 237.059 140.325 237.062C140.436 237.064 140.52 237.069 140.577 237.074V238.097C140.543 238.089 140.465 238.076 140.342 238.059C140.223 238.039 140.097 238.029 139.963 238.029C139.645 238.029 139.361 238.096 139.111 238.229C138.864 238.36 138.668 238.542 138.523 238.775C138.381 239.005 138.31 239.268 138.31 239.563V243.705H137.304ZM144.041 243.841C143.496 243.841 143.014 243.704 142.597 243.428C142.179 243.15 141.852 242.758 141.617 242.252C141.381 241.743 141.263 241.143 141.263 240.449C141.263 239.762 141.381 239.165 141.617 238.66C141.852 238.154 142.181 237.763 142.601 237.488C143.021 237.212 143.507 237.074 144.058 237.074C144.485 237.074 144.821 237.145 145.068 237.287C145.318 237.427 145.509 237.586 145.639 237.765C145.773 237.941 145.877 238.086 145.95 238.199H146.036V234.978H147.041V243.705H146.07V242.699H145.95C145.877 242.819 145.771 242.969 145.635 243.151C145.499 243.33 145.304 243.491 145.051 243.633C144.798 243.772 144.462 243.841 144.041 243.841ZM144.178 242.938C144.581 242.938 144.922 242.833 145.2 242.623C145.479 242.41 145.69 242.116 145.835 241.741C145.98 241.363 146.053 240.927 146.053 240.432C146.053 239.944 145.982 239.516 145.84 239.15C145.698 238.78 145.487 238.493 145.209 238.289C144.931 238.081 144.587 237.978 144.178 237.978C143.752 237.978 143.396 238.087 143.112 238.306C142.831 238.522 142.619 238.816 142.477 239.188C142.338 239.557 142.269 239.972 142.269 240.432C142.269 240.898 142.34 241.322 142.482 241.702C142.627 242.08 142.84 242.381 143.121 242.606C143.405 242.827 143.757 242.938 144.178 242.938ZM150.949 243.858C150.534 243.858 150.158 243.78 149.82 243.624C149.482 243.465 149.213 243.236 149.014 242.938C148.815 242.637 148.716 242.273 148.716 241.847C148.716 241.472 148.79 241.168 148.938 240.935C149.085 240.699 149.283 240.515 149.53 240.381C149.777 240.248 150.05 240.148 150.348 240.083C150.649 240.015 150.952 239.961 151.256 239.921C151.654 239.87 151.976 239.831 152.223 239.806C152.473 239.778 152.655 239.731 152.769 239.665C152.885 239.6 152.943 239.486 152.943 239.324V239.29C152.943 238.87 152.828 238.543 152.598 238.31C152.371 238.077 152.026 237.961 151.563 237.961C151.083 237.961 150.706 238.066 150.433 238.276C150.161 238.486 149.969 238.711 149.858 238.949L148.904 238.608C149.074 238.211 149.301 237.901 149.585 237.68C149.872 237.455 150.185 237.299 150.523 237.211C150.864 237.12 151.199 237.074 151.529 237.074C151.739 237.074 151.98 237.1 152.253 237.151C152.529 237.199 152.794 237.3 153.05 237.454C153.308 237.607 153.523 237.839 153.693 238.148C153.864 238.458 153.949 238.873 153.949 239.393V243.705H152.943V242.819H152.892C152.824 242.961 152.71 243.113 152.551 243.275C152.392 243.437 152.181 243.574 151.916 243.688C151.652 243.802 151.33 243.858 150.949 243.858ZM151.102 242.955C151.5 242.955 151.835 242.877 152.108 242.721C152.384 242.564 152.591 242.363 152.73 242.116C152.872 241.868 152.943 241.608 152.943 241.336V240.415C152.901 240.466 152.807 240.513 152.662 240.556C152.52 240.596 152.355 240.631 152.168 240.662C151.983 240.691 151.803 240.716 151.627 240.739C151.453 240.759 151.313 240.776 151.205 240.79C150.943 240.824 150.699 240.88 150.472 240.956C150.247 241.03 150.065 241.143 149.926 241.293C149.79 241.441 149.722 241.643 149.722 241.898C149.722 242.248 149.851 242.512 150.11 242.691C150.371 242.867 150.702 242.955 151.102 242.955ZM156.198 246.16C156.027 246.16 155.875 246.145 155.742 246.117C155.608 246.091 155.516 246.066 155.465 246.04L155.721 245.154C155.965 245.216 156.181 245.239 156.368 245.222C156.556 245.205 156.722 245.121 156.867 244.971C157.015 244.823 157.15 244.583 157.272 244.251L157.459 243.739L155.039 237.16H156.13L157.937 242.376H158.005L159.812 237.16H160.902L158.124 244.66C157.999 244.998 157.844 245.278 157.66 245.499C157.475 245.724 157.26 245.89 157.016 245.998C156.775 246.106 156.502 246.16 156.198 246.16Z" fill="black"/>
<path d="M198.111 231.705V223.575" stroke="black"/>
<path d="M185.062 243.824C184.42 243.824 183.873 243.65 183.422 243.3C182.97 242.948 182.625 242.438 182.386 241.77C182.147 241.1 182.028 240.29 182.028 239.341C182.028 238.398 182.147 237.593 182.386 236.925C182.628 236.255 182.974 235.743 183.426 235.391C183.88 235.036 184.426 234.858 185.062 234.858C185.699 234.858 186.243 235.036 186.694 235.391C187.149 235.743 187.495 236.255 187.734 236.925C187.976 237.593 188.096 238.398 188.096 239.341C188.096 240.29 187.977 241.1 187.738 241.77C187.5 242.438 187.155 242.948 186.703 243.3C186.251 243.65 185.704 243.824 185.062 243.824ZM185.062 242.887C185.699 242.887 186.193 242.58 186.545 241.966C186.897 241.353 187.074 240.478 187.074 239.341C187.074 238.586 186.993 237.942 186.831 237.411C186.672 236.88 186.442 236.475 186.14 236.197C185.842 235.918 185.483 235.779 185.062 235.779C184.432 235.779 183.939 236.09 183.584 236.712C183.228 237.331 183.051 238.208 183.051 239.341C183.051 240.097 183.13 240.739 183.29 241.268C183.449 241.796 183.677 242.198 183.976 242.474C184.277 242.749 184.639 242.887 185.062 242.887ZM189.754 243.705L193.657 235.983V235.915H189.157V234.978H194.748V235.966L190.862 243.705H189.754ZM199.439 234.569L196.627 245.018H195.706L198.519 234.569H199.439ZM203.461 243.824C202.819 243.824 202.272 243.65 201.82 243.3C201.368 242.948 201.023 242.438 200.785 241.77C200.546 241.1 200.427 240.29 200.427 239.341C200.427 238.398 200.546 237.593 200.785 236.925C201.026 236.255 201.373 235.743 201.824 235.391C202.279 235.036 202.824 234.858 203.461 234.858C204.097 234.858 204.641 235.036 205.093 235.391C205.547 235.743 205.894 236.255 206.133 236.925C206.374 237.593 206.495 238.398 206.495 239.341C206.495 240.29 206.375 241.1 206.137 241.77C205.898 242.438 205.553 242.948 205.101 243.3C204.65 243.65 204.103 243.824 203.461 243.824ZM203.461 242.887C204.097 242.887 204.591 242.58 204.944 241.966C205.296 241.353 205.472 240.478 205.472 239.341C205.472 238.586 205.391 237.942 205.229 237.411C205.07 236.88 204.84 236.475 204.539 236.197C204.241 235.918 203.881 235.779 203.461 235.779C202.83 235.779 202.337 236.09 201.982 236.712C201.627 237.331 201.449 238.208 201.449 239.341C201.449 240.097 201.529 240.739 201.688 241.268C201.847 241.796 202.076 242.198 202.374 242.474C202.675 242.749 203.037 242.887 203.461 242.887ZM207.91 241.915V241.046L211.745 234.978H212.375V236.324H211.949L209.052 240.91V240.978H214.216V241.915H207.91ZM212.018 243.705V241.651V241.246V234.978H213.023V243.705H212.018Z" fill="black"/>
<path d="M263.667 231.705V223.575" stroke="black"/>
<path d="M250.647 243.824C250.005 243.824 249.458 243.65 249.006 243.3C248.555 242.948 248.21 242.438 247.971 241.77C247.732 241.1 247.613 240.29 247.613 239.341C247.613 238.398 247.732 237.593 247.971 236.925C248.212 236.255 248.559 235.743 249.011 235.391C249.465 235.036 250.011 234.858 250.647 234.858C251.283 234.858 251.827 235.036 252.279 235.391C252.734 235.743 253.08 236.255 253.319 236.925C253.56 237.593 253.681 238.398 253.681 239.341C253.681 240.29 253.562 241.1 253.323 241.77C253.085 242.438 252.739 242.948 252.288 243.3C251.836 243.65 251.289 243.824 250.647 243.824ZM250.647 242.887C251.283 242.887 251.778 242.58 252.13 241.966C252.482 241.353 252.658 240.478 252.658 239.341C252.658 238.586 252.577 237.942 252.416 237.411C252.256 236.88 252.026 236.475 251.725 236.197C251.427 235.918 251.068 235.779 250.647 235.779C250.016 235.779 249.524 236.09 249.168 236.712C248.813 237.331 248.636 238.208 248.636 239.341C248.636 240.097 248.715 240.739 248.874 241.268C249.033 241.796 249.262 242.198 249.56 242.474C249.862 242.749 250.224 242.887 250.647 242.887ZM255.339 243.705L259.242 235.983V235.915H254.742V234.978H260.333V235.966L256.447 243.705H255.339ZM265.024 234.569L262.211 245.018H261.291L264.103 234.569H265.024ZM269.046 243.824C268.403 243.824 267.857 243.65 267.405 243.3C266.953 242.948 266.608 242.438 266.369 241.77C266.131 241.1 266.011 240.29 266.011 239.341C266.011 238.398 266.131 237.593 266.369 236.925C266.611 236.255 266.957 235.743 267.409 235.391C267.864 235.036 268.409 234.858 269.046 234.858C269.682 234.858 270.226 235.036 270.678 235.391C271.132 235.743 271.479 236.255 271.717 236.925C271.959 237.593 272.08 238.398 272.08 239.341C272.08 240.29 271.96 241.1 271.722 241.77C271.483 242.438 271.138 242.948 270.686 243.3C270.234 243.65 269.688 243.824 269.046 243.824ZM269.046 242.887C269.682 242.887 270.176 242.58 270.528 241.966C270.881 241.353 271.057 240.478 271.057 239.341C271.057 238.586 270.976 237.942 270.814 237.411C270.655 236.88 270.425 236.475 270.124 236.197C269.825 235.918 269.466 235.779 269.046 235.779C268.415 235.779 267.922 236.09 267.567 236.712C267.212 237.331 267.034 238.208 267.034 239.341C267.034 240.097 267.114 240.739 267.273 241.268C267.432 241.796 267.661 242.198 267.959 242.474C268.26 242.749 268.622 242.887 269.046 242.887ZM276.648 243.824C276.085 243.824 275.584 243.728 275.144 243.535C274.706 243.341 274.358 243.073 274.1 242.729C273.844 242.383 273.705 241.981 273.682 241.523H274.756C274.778 241.805 274.875 242.047 275.046 242.252C275.216 242.454 275.439 242.61 275.715 242.721C275.99 242.831 276.296 242.887 276.631 242.887C277.006 242.887 277.338 242.822 277.628 242.691C277.918 242.56 278.145 242.378 278.31 242.145C278.475 241.912 278.557 241.643 278.557 241.336C278.557 241.015 278.477 240.732 278.318 240.488C278.159 240.241 277.926 240.047 277.619 239.908C277.313 239.769 276.938 239.699 276.494 239.699H275.796V238.762H276.494C276.841 238.762 277.145 238.699 277.406 238.574C277.671 238.449 277.876 238.273 278.024 238.046C278.175 237.819 278.25 237.552 278.25 237.245C278.25 236.949 278.185 236.692 278.054 236.474C277.923 236.255 277.739 236.084 277.5 235.962C277.264 235.84 276.986 235.779 276.665 235.779C276.364 235.779 276.08 235.834 275.813 235.945C275.548 236.053 275.332 236.211 275.165 236.418C274.997 236.623 274.906 236.87 274.892 237.16H273.869C273.886 236.702 274.024 236.302 274.283 235.958C274.541 235.611 274.879 235.341 275.297 235.148C275.717 234.955 276.179 234.858 276.682 234.858C277.222 234.858 277.685 234.968 278.071 235.187C278.457 235.403 278.754 235.688 278.962 236.043C279.169 236.398 279.273 236.782 279.273 237.194C279.273 237.685 279.144 238.104 278.885 238.451C278.629 238.797 278.281 239.037 277.841 239.171V239.239C278.392 239.33 278.823 239.564 279.132 239.942C279.442 240.317 279.597 240.782 279.597 241.336C279.597 241.81 279.467 242.236 279.209 242.614C278.953 242.989 278.604 243.285 278.161 243.501C277.717 243.716 277.213 243.824 276.648 243.824Z" fill="black"/>
<path d="M329.222 231.705V223.575" stroke="black"/>
<path d="M316.39 243.824C315.748 243.824 315.201 243.65 314.75 243.3C314.298 242.948 313.953 242.438 313.714 241.77C313.475 241.1 313.356 240.29 313.356 239.341C313.356 238.398 313.475 237.593 313.714 236.925C313.955 236.255 314.302 235.743 314.754 235.391C315.208 235.036 315.754 234.858 316.39 234.858C317.027 234.858 317.571 235.036 318.022 235.391C318.477 235.743 318.823 236.255 319.062 236.925C319.303 237.593 319.424 238.398 319.424 239.341C319.424 240.29 319.305 241.1 319.066 241.77C318.828 242.438 318.482 242.948 318.031 243.3C317.579 243.65 317.032 243.824 316.39 243.824ZM316.39 242.887C317.027 242.887 317.521 242.58 317.873 241.966C318.225 241.353 318.402 240.478 318.402 239.341C318.402 238.586 318.321 237.942 318.159 237.411C318 236.88 317.769 236.475 317.468 236.197C317.17 235.918 316.811 235.779 316.39 235.779C315.759 235.779 315.267 236.09 314.911 236.712C314.556 237.331 314.379 238.208 314.379 239.341C314.379 240.097 314.458 240.739 314.617 241.268C314.777 241.796 315.005 242.198 315.303 242.474C315.605 242.749 315.967 242.887 316.39 242.887ZM321.082 243.705L324.985 235.983V235.915H320.485V234.978H326.076V235.966L322.19 243.705H321.082ZM330.767 234.569L327.954 245.018H327.034L329.846 234.569H330.767ZM334.789 243.824C334.147 243.824 333.6 243.65 333.148 243.3C332.696 242.948 332.351 242.438 332.112 241.77C331.874 241.1 331.754 240.29 331.754 239.341C331.754 238.398 331.874 237.593 332.112 236.925C332.354 236.255 332.701 235.743 333.152 235.391C333.607 235.036 334.152 234.858 334.789 234.858C335.425 234.858 335.969 235.036 336.421 235.391C336.875 235.743 337.222 236.255 337.46 236.925C337.702 237.593 337.823 238.398 337.823 239.341C337.823 240.29 337.703 241.1 337.465 241.77C337.226 242.438 336.881 242.948 336.429 243.3C335.977 243.65 335.431 243.824 334.789 243.824ZM334.789 242.887C335.425 242.887 335.919 242.58 336.272 241.966C336.624 241.353 336.8 240.478 336.8 239.341C336.8 238.586 336.719 237.942 336.557 237.411C336.398 236.88 336.168 236.475 335.867 236.197C335.568 235.918 335.209 235.779 334.789 235.779C334.158 235.779 333.665 236.09 333.31 236.712C332.955 237.331 332.777 238.208 332.777 239.341C332.777 240.097 332.857 240.739 333.016 241.268C333.175 241.796 333.404 242.198 333.702 242.474C334.003 242.749 334.365 242.887 334.789 242.887ZM339.442 243.705V242.938L342.323 239.785C342.661 239.415 342.939 239.094 343.158 238.822C343.377 238.546 343.539 238.287 343.644 238.046C343.752 237.802 343.806 237.546 343.806 237.279C343.806 236.972 343.732 236.706 343.584 236.482C343.439 236.258 343.24 236.084 342.987 235.962C342.735 235.84 342.451 235.779 342.135 235.779C341.8 235.779 341.507 235.849 341.257 235.988C341.01 236.124 340.818 236.316 340.682 236.563C340.549 236.81 340.482 237.1 340.482 237.432H339.476C339.476 236.921 339.594 236.472 339.83 236.086C340.066 235.699 340.387 235.398 340.793 235.182C341.202 234.966 341.661 234.858 342.169 234.858C342.681 234.858 343.134 234.966 343.529 235.182C343.924 235.398 344.233 235.689 344.458 236.056C344.682 236.422 344.794 236.83 344.794 237.279C344.794 237.6 344.736 237.914 344.62 238.221C344.506 238.525 344.307 238.864 344.023 239.239C343.742 239.611 343.351 240.066 342.851 240.603L340.891 242.699V242.768H344.948V243.705H339.442Z" fill="black"/>
<path d="M394.778 231.705V223.575" stroke="black"/>
<path d="M382.79 243.824C382.148 243.824 381.601 243.65 381.149 243.3C380.697 242.948 380.352 242.438 380.113 241.77C379.875 241.1 379.755 240.29 379.755 239.341C379.755 238.398 379.875 237.593 380.113 236.925C380.355 236.255 380.701 235.743 381.153 235.391C381.608 235.036 382.153 234.858 382.79 234.858C383.426 234.858 383.97 235.036 384.422 235.391C384.876 235.743 385.223 236.255 385.461 236.925C385.703 237.593 385.824 238.398 385.824 239.341C385.824 240.29 385.704 241.1 385.466 241.77C385.227 242.438 384.882 242.948 384.43 243.3C383.978 243.65 383.432 243.824 382.79 243.824ZM382.79 242.887C383.426 242.887 383.92 242.58 384.273 241.966C384.625 241.353 384.801 240.478 384.801 239.341C384.801 238.586 384.72 237.942 384.558 237.411C384.399 236.88 384.169 236.475 383.868 236.197C383.569 235.918 383.21 235.779 382.79 235.779C382.159 235.779 381.666 236.09 381.311 236.712C380.956 237.331 380.778 238.208 380.778 239.341C380.778 240.097 380.858 240.739 381.017 241.268C381.176 241.796 381.405 242.198 381.703 242.474C382.004 242.749 382.366 242.887 382.79 242.887ZM387.481 243.705L391.385 235.983V235.915H386.885V234.978H392.476V235.966L388.589 243.705H387.481ZM397.166 234.569L394.354 245.018H393.433L396.246 234.569H397.166ZM401.188 243.824C400.546 243.824 399.999 243.65 399.547 243.3C399.096 242.948 398.75 242.438 398.512 241.77C398.273 241.1 398.154 240.29 398.154 239.341C398.154 238.398 398.273 237.593 398.512 236.925C398.753 236.255 399.1 235.743 399.552 235.391C400.006 235.036 400.552 234.858 401.188 234.858C401.824 234.858 402.368 235.036 402.82 235.391C403.275 235.743 403.621 236.255 403.86 236.925C404.101 237.593 404.222 238.398 404.222 239.341C404.222 240.29 404.103 241.1 403.864 241.77C403.625 242.438 403.28 242.948 402.829 243.3C402.377 243.65 401.83 243.824 401.188 243.824ZM401.188 242.887C401.824 242.887 402.319 242.58 402.671 241.966C403.023 241.353 403.199 240.478 403.199 239.341C403.199 238.586 403.118 237.942 402.956 237.411C402.797 236.88 402.567 236.475 402.266 236.197C401.968 235.918 401.608 235.779 401.188 235.779C400.557 235.779 400.064 236.09 399.709 236.712C399.354 237.331 399.177 238.208 399.177 239.341C399.177 240.097 399.256 240.739 399.415 241.268C399.574 241.796 399.803 242.198 400.101 242.474C400.402 242.749 400.765 242.887 401.188 242.887ZM408.91 234.978V243.705H407.853V236.086H407.802L405.671 237.501V236.427L407.853 234.978H408.91Z" fill="black"/>
<path d="M460.333 231.705V223.575" stroke="black"/>
<path d="M447.12 243.824C446.478 243.824 445.932 243.65 445.48 243.3C445.028 242.948 444.683 242.438 444.444 241.77C444.206 241.1 444.086 240.29 444.086 239.341C444.086 238.398 444.206 237.593 444.444 236.925C444.686 236.255 445.032 235.743 445.484 235.391C445.939 235.036 446.484 234.858 447.12 234.858C447.757 234.858 448.301 235.036 448.753 235.391C449.207 235.743 449.554 236.255 449.792 236.925C450.034 237.593 450.155 238.398 450.155 239.341C450.155 240.29 450.035 241.1 449.797 241.77C449.558 242.438 449.213 242.948 448.761 243.3C448.309 243.65 447.763 243.824 447.12 243.824ZM447.12 242.887C447.757 242.887 448.251 242.58 448.603 241.966C448.956 241.353 449.132 240.478 449.132 239.341C449.132 238.586 449.051 237.942 448.889 237.411C448.73 236.88 448.5 236.475 448.199 236.197C447.9 235.918 447.541 235.779 447.12 235.779C446.49 235.779 445.997 236.09 445.642 236.712C445.287 237.331 445.109 238.208 445.109 239.341C445.109 240.097 445.189 240.739 445.348 241.268C445.507 241.796 445.736 242.198 446.034 242.474C446.335 242.749 446.697 242.887 447.12 242.887ZM454.672 243.824C454.314 243.819 453.956 243.751 453.598 243.62C453.24 243.489 452.913 243.269 452.618 242.959C452.322 242.647 452.085 242.225 451.906 241.694C451.727 241.16 451.638 240.489 451.638 239.682C451.638 238.91 451.71 238.225 451.855 237.628C452 237.029 452.21 236.525 452.486 236.116C452.761 235.704 453.093 235.391 453.483 235.178C453.875 234.965 454.317 234.858 454.808 234.858C455.297 234.858 455.731 234.956 456.112 235.153C456.495 235.346 456.808 235.616 457.049 235.962C457.291 236.309 457.447 236.708 457.518 237.16H456.478C456.382 236.768 456.194 236.442 455.916 236.184C455.638 235.925 455.268 235.796 454.808 235.796C454.132 235.796 453.599 236.09 453.21 236.678C452.824 237.266 452.629 238.091 452.626 239.154H452.694C452.853 238.912 453.042 238.706 453.261 238.536C453.483 238.363 453.727 238.229 453.994 238.135C454.261 238.042 454.544 237.995 454.842 237.995C455.342 237.995 455.799 238.12 456.214 238.37C456.629 238.617 456.961 238.959 457.211 239.397C457.461 239.831 457.586 240.33 457.586 240.893C457.586 241.432 457.466 241.927 457.224 242.376C456.983 242.822 456.643 243.177 456.206 243.441C455.771 243.702 455.26 243.83 454.672 243.824ZM454.672 242.887C455.03 242.887 455.351 242.797 455.635 242.618C455.922 242.439 456.147 242.199 456.312 241.898C456.48 241.597 456.564 241.262 456.564 240.893C456.564 240.532 456.483 240.204 456.321 239.908C456.162 239.61 455.942 239.373 455.66 239.197C455.382 239.02 455.064 238.932 454.706 238.932C454.436 238.932 454.184 238.986 453.951 239.094C453.718 239.199 453.514 239.344 453.338 239.529C453.165 239.714 453.028 239.925 452.929 240.164C452.829 240.4 452.78 240.648 452.78 240.91C452.78 241.256 452.861 241.58 453.022 241.881C453.187 242.182 453.412 242.425 453.696 242.61C453.983 242.795 454.308 242.887 454.672 242.887ZM462.364 234.569L459.552 245.018H458.631L461.444 234.569H462.364ZM463.54 243.705V242.938L466.42 239.785C466.758 239.415 467.037 239.094 467.255 238.822C467.474 238.546 467.636 238.287 467.741 238.046C467.849 237.802 467.903 237.546 467.903 237.279C467.903 236.972 467.829 236.706 467.682 236.482C467.537 236.258 467.338 236.084 467.085 235.962C466.832 235.84 466.548 235.779 466.233 235.779C465.897 235.779 465.605 235.849 465.355 235.988C465.108 236.124 464.916 236.316 464.78 236.563C464.646 236.81 464.579 237.1 464.579 237.432H463.574C463.574 236.921 463.692 236.472 463.927 236.086C464.163 235.699 464.484 235.398 464.89 235.182C465.299 234.966 465.758 234.858 466.267 234.858C466.778 234.858 467.231 234.966 467.626 235.182C468.021 235.398 468.331 235.689 468.555 236.056C468.78 236.422 468.892 236.83 468.892 237.279C468.892 237.6 468.834 237.914 468.717 238.221C468.603 238.525 468.405 238.864 468.12 239.239C467.839 239.611 467.449 240.066 466.949 240.603L464.988 242.699V242.768H469.045V243.705H463.54ZM473.601 243.824C473.015 243.824 472.498 243.721 472.049 243.513C471.603 243.303 471.255 243.015 471.005 242.648C470.755 242.279 470.632 241.858 470.635 241.387C470.632 241.018 470.704 240.677 470.852 240.364C471 240.049 471.201 239.786 471.457 239.576C471.716 239.363 472.004 239.228 472.322 239.171V239.12C471.905 239.012 471.572 238.778 471.325 238.417C471.078 238.053 470.956 237.64 470.959 237.177C470.956 236.733 471.068 236.337 471.295 235.988C471.522 235.638 471.835 235.363 472.233 235.161C472.633 234.959 473.089 234.858 473.601 234.858C474.106 234.858 474.558 234.959 474.956 235.161C475.353 235.363 475.666 235.638 475.893 235.988C476.123 236.337 476.24 236.733 476.243 237.177C476.24 237.64 476.113 238.053 475.863 238.417C475.616 238.778 475.288 239.012 474.879 239.12V239.171C475.194 239.228 475.478 239.363 475.731 239.576C475.984 239.786 476.186 240.049 476.336 240.364C476.487 240.677 476.564 241.018 476.567 241.387C476.564 241.858 476.436 242.279 476.183 242.648C475.933 243.015 475.585 243.303 475.139 243.513C474.696 243.721 474.183 243.824 473.601 243.824ZM473.601 242.887C473.995 242.887 474.336 242.823 474.623 242.695C474.91 242.567 475.132 242.387 475.288 242.154C475.444 241.921 475.524 241.648 475.527 241.336C475.524 241.006 475.439 240.715 475.271 240.462C475.103 240.209 474.875 240.01 474.585 239.866C474.298 239.721 473.97 239.648 473.601 239.648C473.228 239.648 472.896 239.721 472.603 239.866C472.314 240.01 472.085 240.209 471.917 240.462C471.753 240.715 471.672 241.006 471.674 241.336C471.672 241.648 471.747 241.921 471.9 242.154C472.057 242.387 472.28 242.567 472.569 242.695C472.859 242.823 473.203 242.887 473.601 242.887ZM473.601 238.745C473.913 238.745 474.19 238.682 474.432 238.557C474.676 238.432 474.868 238.258 475.007 238.033C475.146 237.809 475.217 237.546 475.22 237.245C475.217 236.949 475.147 236.692 475.011 236.474C474.875 236.252 474.686 236.081 474.444 235.962C474.203 235.84 473.922 235.779 473.601 235.779C473.274 235.779 472.988 235.84 472.744 235.962C472.5 236.081 472.311 236.252 472.177 236.474C472.044 236.692 471.978 236.949 471.981 237.245C471.978 237.546 472.045 237.809 472.182 238.033C472.321 238.258 472.513 238.432 472.757 238.557C473.001 238.682 473.282 238.745 473.601 238.745Z" fill="black"/>
<path d="M525.889 231.705V223.575" stroke="black"/>
<path d="M512.446 243.824C511.804 243.824 511.257 243.65 510.805 243.3C510.353 242.948 510.008 242.438 509.769 241.77C509.531 241.1 509.411 240.29 509.411 239.341C509.411 238.398 509.531 237.593 509.769 236.925C510.011 236.255 510.357 235.743 510.809 235.391C511.264 235.036 511.809 234.858 512.446 234.858C513.082 234.858 513.626 235.036 514.078 235.391C514.532 235.743 514.879 236.255 515.117 236.925C515.359 237.593 515.48 238.398 515.48 239.341C515.48 240.29 515.36 241.1 515.122 241.77C514.883 242.438 514.538 242.948 514.086 243.3C513.634 243.65 513.088 243.824 512.446 243.824ZM512.446 242.887C513.082 242.887 513.576 242.58 513.929 241.966C514.281 241.353 514.457 240.478 514.457 239.341C514.457 238.586 514.376 237.942 514.214 237.411C514.055 236.88 513.825 236.475 513.524 236.197C513.225 235.918 512.866 235.779 512.446 235.779C511.815 235.779 511.322 236.09 510.967 236.712C510.612 237.331 510.434 238.208 510.434 239.341C510.434 240.097 510.514 240.739 510.673 241.268C510.832 241.796 511.061 242.198 511.359 242.474C511.66 242.749 512.022 242.887 512.446 242.887ZM519.997 243.824C519.639 243.819 519.281 243.751 518.923 243.62C518.565 243.489 518.238 243.269 517.943 242.959C517.647 242.647 517.41 242.225 517.231 241.694C517.052 241.16 516.963 240.489 516.963 239.682C516.963 238.91 517.035 238.225 517.18 237.628C517.325 237.029 517.535 236.525 517.811 236.116C518.086 235.704 518.419 235.391 518.808 235.178C519.2 234.965 519.642 234.858 520.133 234.858C520.622 234.858 521.056 234.956 521.437 235.153C521.821 235.346 522.133 235.616 522.375 235.962C522.616 236.309 522.772 236.708 522.843 237.16H521.804C521.707 236.768 521.519 236.442 521.241 236.184C520.963 235.925 520.593 235.796 520.133 235.796C519.457 235.796 518.924 236.09 518.535 236.678C518.149 237.266 517.954 238.091 517.951 239.154H518.019C518.179 238.912 518.367 238.706 518.586 238.536C518.808 238.363 519.052 238.229 519.319 238.135C519.586 238.042 519.869 237.995 520.167 237.995C520.667 237.995 521.125 238.12 521.539 238.37C521.954 238.617 522.286 238.959 522.536 239.397C522.786 239.831 522.911 240.33 522.911 240.893C522.911 241.432 522.791 241.927 522.549 242.376C522.308 242.822 521.968 243.177 521.531 243.441C521.096 243.702 520.585 243.83 519.997 243.824ZM519.997 242.887C520.355 242.887 520.676 242.797 520.96 242.618C521.247 242.439 521.473 242.199 521.637 241.898C521.805 241.597 521.889 241.262 521.889 240.893C521.889 240.532 521.808 240.204 521.646 239.908C521.487 239.61 521.267 239.373 520.985 239.197C520.707 239.02 520.389 238.932 520.031 238.932C519.761 238.932 519.509 238.986 519.277 239.094C519.044 239.199 518.839 239.344 518.663 239.529C518.49 239.714 518.353 239.925 518.254 240.164C518.154 240.4 518.105 240.648 518.105 240.91C518.105 241.256 518.186 241.58 518.348 241.881C518.512 242.182 518.737 242.425 519.021 242.61C519.308 242.795 519.633 242.887 519.997 242.887ZM527.69 234.569L524.877 245.018H523.957L526.769 234.569H527.69ZM528.865 243.705V242.938L531.745 239.785C532.083 239.415 532.362 239.094 532.58 238.822C532.799 238.546 532.961 238.287 533.066 238.046C533.174 237.802 533.228 237.546 533.228 237.279C533.228 236.972 533.154 236.706 533.007 236.482C532.862 236.258 532.663 236.084 532.41 235.962C532.157 235.84 531.873 235.779 531.558 235.779C531.223 235.779 530.93 235.849 530.68 235.988C530.433 236.124 530.241 236.316 530.105 236.563C529.971 236.81 529.904 237.1 529.904 237.432H528.899C528.899 236.921 529.017 236.472 529.252 236.086C529.488 235.699 529.809 235.398 530.215 235.182C530.625 234.966 531.083 234.858 531.592 234.858C532.103 234.858 532.556 234.966 532.951 235.182C533.346 235.398 533.656 235.689 533.88 236.056C534.105 236.422 534.217 236.83 534.217 237.279C534.217 237.6 534.159 237.914 534.042 238.221C533.929 238.525 533.73 238.864 533.446 239.239C533.164 239.611 532.774 240.066 532.274 240.603L530.313 242.699V242.768H534.37V243.705H528.865ZM536.403 243.705L540.306 235.983V235.915H535.806V234.978H541.397V235.966L537.511 243.705H536.403Z" fill="black"/>
<path d="M591.444 231.705V223.575" stroke="black"/>
<path d="M578.685 243.824C578.043 243.824 577.496 243.65 577.044 243.3C576.592 242.948 576.247 242.438 576.009 241.77C575.77 241.1 575.651 240.29 575.651 239.341C575.651 238.398 575.77 237.593 576.009 236.925C576.25 236.255 576.597 235.743 577.048 235.391C577.503 235.036 578.048 234.858 578.685 234.858C579.321 234.858 579.865 235.036 580.317 235.391C580.771 235.743 581.118 236.255 581.357 236.925C581.598 237.593 581.719 238.398 581.719 239.341C581.719 240.29 581.599 241.1 581.361 241.77C581.122 242.438 580.777 242.948 580.325 243.3C579.874 243.65 579.327 243.824 578.685 243.824ZM578.685 242.887C579.321 242.887 579.815 242.58 580.168 241.966C580.52 241.353 580.696 240.478 580.696 239.341C580.696 238.586 580.615 237.942 580.453 237.411C580.294 236.88 580.064 236.475 579.763 236.197C579.465 235.918 579.105 235.779 578.685 235.779C578.054 235.779 577.561 236.09 577.206 236.712C576.851 237.331 576.673 238.208 576.673 239.341C576.673 240.097 576.753 240.739 576.912 241.268C577.071 241.796 577.3 242.198 577.598 242.474C577.899 242.749 578.261 242.887 578.685 242.887ZM586.236 243.824C585.878 243.819 585.52 243.751 585.162 243.62C584.804 243.489 584.477 243.269 584.182 242.959C583.886 242.647 583.649 242.225 583.47 241.694C583.291 241.16 583.202 240.489 583.202 239.682C583.202 238.91 583.274 238.225 583.419 237.628C583.564 237.029 583.774 236.525 584.05 236.116C584.325 235.704 584.658 235.391 585.047 235.178C585.439 234.965 585.881 234.858 586.372 234.858C586.861 234.858 587.295 234.956 587.676 235.153C588.06 235.346 588.372 235.616 588.614 235.962C588.855 236.309 589.011 236.708 589.082 237.16H588.043C587.946 236.768 587.759 236.442 587.48 236.184C587.202 235.925 586.832 235.796 586.372 235.796C585.696 235.796 585.163 236.09 584.774 236.678C584.388 237.266 584.193 238.091 584.19 239.154H584.259C584.418 238.912 584.607 238.706 584.825 238.536C585.047 238.363 585.291 238.229 585.558 238.135C585.825 238.042 586.108 237.995 586.406 237.995C586.906 237.995 587.364 238.12 587.778 238.37C588.193 238.617 588.526 238.959 588.776 239.397C589.026 239.831 589.151 240.33 589.151 240.893C589.151 241.432 589.03 241.927 588.788 242.376C588.547 242.822 588.207 243.177 587.77 243.441C587.335 243.702 586.824 243.83 586.236 243.824ZM586.236 242.887C586.594 242.887 586.915 242.797 587.199 242.618C587.486 242.439 587.712 242.199 587.876 241.898C588.044 241.597 588.128 241.262 588.128 240.893C588.128 240.532 588.047 240.204 587.885 239.908C587.726 239.61 587.506 239.373 587.224 239.197C586.946 239.02 586.628 238.932 586.27 238.932C586 238.932 585.749 238.986 585.516 239.094C585.283 239.199 585.078 239.344 584.902 239.529C584.729 239.714 584.592 239.925 584.493 240.164C584.393 240.4 584.344 240.648 584.344 240.91C584.344 241.256 584.425 241.58 584.587 241.881C584.751 242.182 584.976 242.425 585.26 242.61C585.547 242.795 585.872 242.887 586.236 242.887ZM593.929 234.569L591.116 245.018H590.196L593.008 234.569H593.929ZM595.104 243.705V242.938L597.984 239.785C598.322 239.415 598.601 239.094 598.82 238.822C599.038 238.546 599.2 238.287 599.305 238.046C599.413 237.802 599.467 237.546 599.467 237.279C599.467 236.972 599.393 236.706 599.246 236.482C599.101 236.258 598.902 236.084 598.649 235.962C598.396 235.84 598.112 235.779 597.797 235.779C597.462 235.779 597.169 235.849 596.919 235.988C596.672 236.124 596.48 236.316 596.344 236.563C596.21 236.81 596.143 237.1 596.143 237.432H595.138C595.138 236.921 595.256 236.472 595.492 236.086C595.727 235.699 596.048 235.398 596.455 235.182C596.864 234.966 597.322 234.858 597.831 234.858C598.342 234.858 598.795 234.966 599.19 235.182C599.585 235.398 599.895 235.689 600.119 236.056C600.344 236.422 600.456 236.83 600.456 237.279C600.456 237.6 600.398 237.914 600.281 238.221C600.168 238.525 599.969 238.864 599.685 239.239C599.403 239.611 599.013 240.066 598.513 240.603L596.553 242.699V242.768H600.609V243.705H595.104ZM605.267 243.824C604.909 243.819 604.551 243.751 604.193 243.62C603.835 243.489 603.509 243.269 603.213 242.959C602.918 242.647 602.68 242.225 602.501 241.694C602.322 241.16 602.233 240.489 602.233 239.682C602.233 238.91 602.305 238.225 602.45 237.628C602.595 237.029 602.805 236.525 603.081 236.116C603.357 235.704 603.689 235.391 604.078 235.178C604.47 234.965 604.912 234.858 605.403 234.858C605.892 234.858 606.327 234.956 606.707 235.153C607.091 235.346 607.403 235.616 607.645 235.962C607.886 236.309 608.043 236.708 608.114 237.16H607.074C606.977 236.768 606.79 236.442 606.511 236.184C606.233 235.925 605.864 235.796 605.403 235.796C604.727 235.796 604.195 236.09 603.805 236.678C603.419 237.266 603.224 238.091 603.222 239.154H603.29C603.449 238.912 603.638 238.706 603.857 238.536C604.078 238.363 604.322 238.229 604.59 238.135C604.857 238.042 605.139 237.995 605.438 237.995C605.938 237.995 606.395 238.12 606.81 238.37C607.224 238.617 607.557 238.959 607.807 239.397C608.057 239.831 608.182 240.33 608.182 240.893C608.182 241.432 608.061 241.927 607.82 242.376C607.578 242.822 607.239 243.177 606.801 243.441C606.367 243.702 605.855 243.83 605.267 243.824ZM605.267 242.887C605.625 242.887 605.946 242.797 606.23 242.618C606.517 242.439 606.743 242.199 606.908 241.898C607.075 241.597 607.159 241.262 607.159 240.893C607.159 240.532 607.078 240.204 606.916 239.908C606.757 239.61 606.537 239.373 606.256 239.197C605.977 239.02 605.659 238.932 605.301 238.932C605.031 238.932 604.78 238.986 604.547 239.094C604.314 239.199 604.109 239.344 603.933 239.529C603.76 239.714 603.624 239.925 603.524 240.164C603.425 240.4 603.375 240.648 603.375 240.91C603.375 241.256 603.456 241.58 603.618 241.881C603.783 242.182 604.007 242.425 604.291 242.61C604.578 242.795 604.903 242.887 605.267 242.887Z" fill="black"/>
<path d="M657 231.705V223.575" stroke="black"/>
<path d="M642.506 243.824C641.864 243.824 641.317 243.65 640.865 243.3C640.414 242.948 640.068 242.438 639.83 241.77C639.591 241.1 639.472 240.29 639.472 239.341C639.472 238.398 639.591 237.593 639.83 236.925C640.071 236.255 640.418 235.743 640.869 235.391C641.324 235.036 641.869 234.858 642.506 234.858C643.142 234.858 643.686 235.036 644.138 235.391C644.593 235.743 644.939 236.255 645.178 236.925C645.419 237.593 645.54 238.398 645.54 239.341C645.54 240.29 645.421 241.1 645.182 241.77C644.943 242.438 644.598 242.948 644.146 243.3C643.695 243.65 643.148 243.824 642.506 243.824ZM642.506 242.887C643.142 242.887 643.637 242.58 643.989 241.966C644.341 241.353 644.517 240.478 644.517 239.341C644.517 238.586 644.436 237.942 644.274 237.411C644.115 236.88 643.885 236.475 643.584 236.197C643.286 235.918 642.926 235.779 642.506 235.779C641.875 235.779 641.382 236.09 641.027 236.712C640.672 237.331 640.494 238.208 640.494 239.341C640.494 240.097 640.574 240.739 640.733 241.268C640.892 241.796 641.121 242.198 641.419 242.474C641.72 242.749 642.083 242.887 642.506 242.887ZM650.057 243.824C649.699 243.819 649.341 243.751 648.983 243.62C648.625 243.489 648.298 243.269 648.003 242.959C647.708 242.647 647.47 242.225 647.291 241.694C647.112 241.16 647.023 240.489 647.023 239.682C647.023 238.91 647.095 238.225 647.24 237.628C647.385 237.029 647.595 236.525 647.871 236.116C648.146 235.704 648.479 235.391 648.868 235.178C649.26 234.965 649.702 234.858 650.193 234.858C650.682 234.858 651.117 234.956 651.497 235.153C651.881 235.346 652.193 235.616 652.435 235.962C652.676 236.309 652.833 236.708 652.904 237.16H651.864C651.767 236.768 651.58 236.442 651.301 236.184C651.023 235.925 650.654 235.796 650.193 235.796C649.517 235.796 648.985 236.09 648.595 236.678C648.209 237.266 648.014 238.091 648.012 239.154H648.08C648.239 238.912 648.428 238.706 648.646 238.536C648.868 238.363 649.112 238.229 649.379 238.135C649.646 238.042 649.929 237.995 650.227 237.995C650.727 237.995 651.185 238.12 651.6 238.37C652.014 238.617 652.347 238.959 652.597 239.397C652.847 239.831 652.972 240.33 652.972 240.893C652.972 241.432 652.851 241.927 652.61 242.376C652.368 242.822 652.029 243.177 651.591 243.441C651.156 243.702 650.645 243.83 650.057 243.824ZM650.057 242.887C650.415 242.887 650.736 242.797 651.02 242.618C651.307 242.439 651.533 242.199 651.698 241.898C651.865 241.597 651.949 241.262 651.949 240.893C651.949 240.532 651.868 240.204 651.706 239.908C651.547 239.61 651.327 239.373 651.046 239.197C650.767 239.02 650.449 238.932 650.091 238.932C649.821 238.932 649.57 238.986 649.337 239.094C649.104 239.199 648.899 239.344 648.723 239.529C648.55 239.714 648.414 239.925 648.314 240.164C648.215 240.4 648.165 240.648 648.165 240.91C648.165 241.256 648.246 241.58 648.408 241.881C648.573 242.182 648.797 242.425 649.081 242.61C649.368 242.795 649.693 242.887 650.057 242.887ZM657.75 234.569L654.937 245.018H654.017L656.829 234.569H657.75ZM658.925 243.705V242.938L661.806 239.785C662.144 239.415 662.422 239.094 662.641 238.822C662.86 238.546 663.021 238.287 663.127 238.046C663.235 237.802 663.289 237.546 663.289 237.279C663.289 236.972 663.215 236.706 663.067 236.482C662.922 236.258 662.723 236.084 662.47 235.962C662.218 235.84 661.933 235.779 661.618 235.779C661.283 235.779 660.99 235.849 660.74 235.988C660.493 236.124 660.301 236.316 660.165 236.563C660.031 236.81 659.965 237.1 659.965 237.432H658.959C658.959 236.921 659.077 236.472 659.313 236.086C659.548 235.699 659.869 235.398 660.276 235.182C660.685 234.966 661.144 234.858 661.652 234.858C662.164 234.858 662.617 234.966 663.012 235.182C663.406 235.398 663.716 235.689 663.941 236.056C664.165 236.422 664.277 236.83 664.277 237.279C664.277 237.6 664.219 237.914 664.102 238.221C663.989 238.525 663.79 238.864 663.506 239.239C663.225 239.611 662.834 240.066 662.334 240.603L660.374 242.699V242.768H664.431V243.705H658.925ZM668.918 243.824C668.418 243.824 667.968 243.725 667.567 243.526C667.166 243.327 666.845 243.055 666.604 242.708C666.362 242.361 666.23 241.966 666.208 241.523H667.23C667.27 241.918 667.449 242.245 667.767 242.503C668.088 242.759 668.472 242.887 668.918 242.887C669.276 242.887 669.594 242.803 669.872 242.635C670.154 242.468 670.374 242.238 670.533 241.945C670.695 241.65 670.776 241.316 670.776 240.944C670.776 240.563 670.692 240.224 670.524 239.925C670.36 239.624 670.132 239.387 669.843 239.214C669.553 239.04 669.222 238.952 668.85 238.949C668.583 238.947 668.308 238.988 668.027 239.073C667.746 239.155 667.514 239.262 667.333 239.393L666.344 239.273L666.872 234.978H671.406V235.915H667.759L667.452 238.489H667.503C667.682 238.347 667.906 238.229 668.176 238.135C668.446 238.042 668.727 237.995 669.02 237.995C669.554 237.995 670.03 238.123 670.448 238.378C670.868 238.631 671.198 238.978 671.436 239.418C671.678 239.858 671.798 240.361 671.798 240.927C671.798 241.483 671.673 241.981 671.423 242.418C671.176 242.853 670.835 243.197 670.401 243.449C669.966 243.699 669.472 243.824 668.918 243.824Z" fill="black"/>
</g>
<defs>
<clipPath id="clip0_190_833">
<rect width="660" height="271" fill="white"/>
</clipPath>
</defs>
</svg>
