<svg width="40" height="41" viewBox="0 0 40 41" fill="none" xmlns="http://www.w3.org/2000/svg">
<path d="M20.4165 11.542C20.4165 16.7197 16.2192 20.917 11.0415 20.917H1.6665V11.542C1.6665 6.36432 5.86383 2.16699 11.0415 2.16699C16.2192 2.16699 20.4165 6.36432 20.4165 11.542Z" fill="#006D77"/>
<path d="M20.4165 30.292C20.4165 25.1143 24.6138 20.917 29.7915 20.917H39.1665V30.292C39.1665 35.4697 34.9692 39.667 29.7915 39.667C24.6138 39.667 20.4165 35.4697 20.4165 30.292Z" fill="#FF5400"/>
<path d="M1.6665 30.292C1.6665 35.4697 5.86383 39.667 11.0415 39.667H20.4165V30.292C20.4165 25.1143 16.2192 20.917 11.0415 20.917C5.86383 20.917 1.6665 25.1143 1.6665 30.292Z" fill="#CDE8E5"/>
<path d="M39.1665 11.542C39.1665 6.36432 34.9692 2.16699 29.7915 2.16699H20.4165V11.542C20.4165 16.7197 24.6138 20.917 29.7915 20.917C34.9692 20.917 39.1665 16.7197 39.1665 11.542Z" fill="#83C5BE"/>
</svg>
