<svg width="179" height="40" viewBox="0 0 179 40" fill="none" xmlns="http://www.w3.org/2000/svg">
<rect width="179" height="40" fill="#E5E5E5"/>
<rect width="1873" height="1272" transform="translate(-26 -30)" fill="white"/>
<rect x="-26" y="-30" width="214" height="1272" fill="#E6F3F2"/>
<path d="M20.4165 11.0417C20.4165 16.2194 16.2192 20.4167 11.0415 20.4167H1.6665V11.0417C1.6665 5.86407 5.86383 1.66675 11.0415 1.66675C16.2192 1.66675 20.4165 5.86407 20.4165 11.0417Z" fill="#006D77"/>
<path d="M20.4165 29.792C20.4165 24.6143 24.6138 20.417 29.7915 20.417H39.1665V29.792C39.1665 34.9697 34.9692 39.167 29.7915 39.167C24.6138 39.167 20.4165 34.9697 20.4165 29.792Z" fill="#FF5400"/>
<path d="M1.6665 29.792C1.6665 34.9697 5.86383 39.167 11.0415 39.167H20.4165V29.792C20.4165 24.6143 16.2192 20.417 11.0415 20.417C5.86383 20.417 1.6665 24.6143 1.6665 29.792Z" fill="#CDE8E5"/>
<path d="M39.1665 11.0417C39.1665 5.86407 34.9692 1.66675 29.7915 1.66675H20.4165V11.0417C20.4165 16.2194 24.6138 20.4167 29.7915 20.4167C34.9692 20.4167 39.1665 16.2194 39.1665 11.0417Z" fill="#83C5BE"/>
<text fill="#004147" xml:space="preserve" style="white-space: pre" font-family="Ubuntu" font-size="24" font-weight="bold" letter-spacing="0em"><tspan x="56" y="28.916">Digi</tspan></text>
<text fill="#FF5400" xml:space="preserve" style="white-space: pre" font-family="Ubuntu" font-size="24" letter-spacing="0em"><tspan x="101.82" y="28.916">Phront</tspan></text>
</svg>
