<svg width="149" height="40" viewBox="0 0 149 40" fill="none" xmlns="http://www.w3.org/2000/svg">
<path d="M20.4165 11.0417C20.4165 16.2194 16.2192 20.4167 11.0415 20.4167H1.6665V11.0417C1.6665 5.86407 5.86383 1.66675 11.0415 1.66675C16.2192 1.66675 20.4165 5.86407 20.4165 11.0417Z" fill="#006D77"/>
<path d="M20.4165 29.7917C20.4165 24.6141 24.6138 20.4167 29.7915 20.4167H39.1665V29.7917C39.1665 34.9694 34.9692 39.1667 29.7915 39.1667C24.6138 39.1667 20.4165 34.9694 20.4165 29.7917Z" fill="#FF5400"/>
<path d="M1.6665 29.7917C1.6665 34.9694 5.86383 39.1667 11.0415 39.1667H20.4165V29.7917C20.4165 24.6141 16.2192 20.4167 11.0415 20.4167C5.86383 20.4167 1.6665 24.6141 1.6665 29.7917Z" fill="#CDE8E5"/>
<path d="M39.1665 11.0417C39.1665 5.86407 34.9692 1.66675 29.7915 1.66675H20.4165V11.0417C20.4165 16.2194 24.6138 20.4167 29.7915 20.4167C34.9692 20.4167 39.1665 16.2194 39.1665 11.0417Z" fill="#83C5BE"/>
<path d="M57.92 29V12.368H69.152V15.512H61.664V18.776H68.312V21.848H61.664V25.856H69.704V29H57.92ZM75.0014 22.592C75.0014 23.696 75.2494 24.584 75.7454 25.256C76.2414 25.928 76.9774 26.264 77.9534 26.264C78.2734 26.264 78.5694 26.256 78.8414 26.24C79.1134 26.208 79.3374 26.176 79.5134 26.144V19.64C79.2894 19.496 78.9934 19.376 78.6254 19.28C78.2734 19.184 77.9134 19.136 77.5454 19.136C75.8494 19.136 75.0014 20.288 75.0014 22.592ZM83.0894 28.592C82.7694 28.688 82.4014 28.784 81.9854 28.88C81.5694 28.96 81.1294 29.032 80.6654 29.096C80.2174 29.16 79.7534 29.208 79.2734 29.24C78.8094 29.288 78.3614 29.312 77.9294 29.312C76.8894 29.312 75.9614 29.16 75.1454 28.856C74.3294 28.552 73.6414 28.12 73.0814 27.56C72.5214 26.984 72.0894 26.296 71.7854 25.496C71.4974 24.68 71.3534 23.768 71.3534 22.76C71.3534 21.736 71.4814 20.816 71.7374 20C71.9934 19.168 72.3614 18.464 72.8414 17.888C73.3214 17.312 73.9054 16.872 74.5934 16.568C75.2974 16.264 76.0974 16.112 76.9934 16.112C77.4894 16.112 77.9294 16.16 78.3134 16.256C78.7134 16.352 79.1134 16.488 79.5134 16.664V10.952L83.0894 10.376V28.592ZM97.2138 28.568C96.6058 28.744 95.8218 28.904 94.8618 29.048C93.9018 29.208 92.8938 29.288 91.8378 29.288C90.7658 29.288 89.8698 29.144 89.1498 28.856C88.4458 28.568 87.8858 28.168 87.4698 27.656C87.0538 27.128 86.7578 26.504 86.5818 25.784C86.4058 25.064 86.3178 24.272 86.3178 23.408V16.376H89.8938V22.976C89.8938 24.128 90.0458 24.96 90.3498 25.472C90.6538 25.984 91.2218 26.24 92.0538 26.24C92.3098 26.24 92.5818 26.232 92.8698 26.216C93.1578 26.184 93.4138 26.152 93.6378 26.12V16.376H97.2138V28.568Z" fill="#004147"/>
<path d="M108.275 29.36C107.027 29.36 105.907 29.168 104.915 28.784C103.923 28.4 103.083 27.84 102.395 27.104C101.707 26.352 101.179 25.44 100.811 24.368C100.443 23.296 100.259 22.064 100.259 20.672C100.259 19.28 100.467 18.048 100.883 16.976C101.315 15.904 101.899 15 102.635 14.264C103.371 13.512 104.235 12.944 105.227 12.56C106.219 12.176 107.283 11.984 108.419 11.984C109.107 11.984 109.731 12.04 110.291 12.152C110.851 12.248 111.339 12.36 111.755 12.488C112.171 12.616 112.515 12.752 112.787 12.896C113.059 13.04 113.251 13.144 113.363 13.208L112.475 15.68C112.091 15.44 111.539 15.216 110.819 15.008C110.115 14.784 109.347 14.672 108.515 14.672C107.795 14.672 107.123 14.8 106.499 15.056C105.875 15.296 105.331 15.664 104.867 16.16C104.419 16.656 104.067 17.28 103.811 18.032C103.555 18.784 103.427 19.656 103.427 20.648C103.427 21.528 103.523 22.336 103.715 23.072C103.923 23.808 104.235 24.448 104.651 24.992C105.067 25.52 105.595 25.936 106.235 26.24C106.875 26.528 107.643 26.672 108.539 26.672C109.611 26.672 110.483 26.568 111.155 26.36C111.827 26.136 112.347 25.928 112.715 25.736L113.531 28.208C113.339 28.336 113.075 28.464 112.739 28.592C112.419 28.72 112.035 28.848 111.587 28.976C111.139 29.088 110.635 29.176 110.075 29.24C109.515 29.32 108.915 29.36 108.275 29.36ZM120.411 29.24C119.547 29.224 118.827 29.128 118.251 28.952C117.691 28.776 117.243 28.528 116.907 28.208C116.571 27.872 116.331 27.464 116.187 26.984C116.059 26.488 115.995 25.928 115.995 25.304V10.856L118.899 10.376V24.752C118.899 25.104 118.923 25.4 118.971 25.64C119.035 25.88 119.139 26.088 119.283 26.264C119.427 26.424 119.619 26.552 119.859 26.648C120.115 26.728 120.435 26.792 120.819 26.84L120.411 29.24ZM127.584 26.96C128.48 26.96 129.16 26.912 129.624 26.816V23.6C129.464 23.552 129.232 23.504 128.928 23.456C128.624 23.408 128.288 23.384 127.92 23.384C127.6 23.384 127.272 23.408 126.936 23.456C126.616 23.504 126.32 23.592 126.048 23.72C125.792 23.848 125.584 24.032 125.424 24.272C125.264 24.496 125.184 24.784 125.184 25.136C125.184 25.824 125.4 26.304 125.832 26.576C126.264 26.832 126.848 26.96 127.584 26.96ZM127.344 16.136C128.304 16.136 129.112 16.256 129.768 16.496C130.424 16.736 130.944 17.072 131.328 17.504C131.728 17.936 132.008 18.464 132.168 19.088C132.344 19.696 132.432 20.368 132.432 21.104V28.712C131.984 28.808 131.304 28.92 130.392 29.048C129.496 29.192 128.48 29.264 127.344 29.264C126.592 29.264 125.904 29.192 125.28 29.048C124.656 28.904 124.12 28.672 123.672 28.352C123.24 28.032 122.896 27.616 122.64 27.104C122.4 26.592 122.28 25.96 122.28 25.208C122.28 24.488 122.416 23.88 122.688 23.384C122.976 22.888 123.36 22.488 123.84 22.184C124.32 21.864 124.872 21.64 125.496 21.512C126.136 21.368 126.8 21.296 127.488 21.296C127.808 21.296 128.144 21.32 128.496 21.368C128.848 21.4 129.224 21.464 129.624 21.56V21.08C129.624 20.744 129.584 20.424 129.504 20.12C129.424 19.816 129.28 19.552 129.072 19.328C128.88 19.088 128.616 18.904 128.28 18.776C127.96 18.648 127.552 18.584 127.056 18.584C126.384 18.584 125.768 18.632 125.208 18.728C124.648 18.824 124.192 18.936 123.84 19.064L123.48 16.712C123.848 16.584 124.384 16.456 125.088 16.328C125.792 16.2 126.544 16.136 127.344 16.136ZM135.989 16.856C136.549 16.696 137.277 16.544 138.173 16.4C139.069 16.256 140.061 16.184 141.149 16.184C142.173 16.184 143.029 16.328 143.717 16.616C144.405 16.888 144.949 17.28 145.349 17.792C145.765 18.288 146.053 18.896 146.213 19.616C146.389 20.32 146.477 21.096 146.477 21.944V29H143.573V22.4C143.573 21.728 143.525 21.16 143.429 20.696C143.349 20.216 143.205 19.832 142.997 19.544C142.805 19.24 142.533 19.024 142.181 18.896C141.845 18.752 141.429 18.68 140.933 18.68C140.565 18.68 140.181 18.704 139.781 18.752C139.381 18.8 139.085 18.84 138.893 18.872V29H135.989V16.856Z" fill="#FF5400"/>
</svg>
